<?xml version="1.0" encoding="utf-8"?>
<!-- Generator: Adobe Illustrator 27.9.0, SVG Export Plug-In . SVG Version: 6.00 Build 0)  -->
<svg xmlns="http://www.w3.org/2000/svg" x="0px" y="0px" viewBox="0 0 152 36" enable-background="new 0 0 152 36">
	<g>
		<path d="M0,12.5c0.5-0.5,1.1-0.6,1.7-0.8c0.4-0.1,0.8-0.3,1.1-0.5C4,10.5,5.1,9.7,6,8.6c0.4-0.5,0.8-1,1.3-1.4
		c0.5-0.4,0.7-0.4,1.2,0c1,0.7,2.1,1.2,3.2,1.7c1,0.5,2,0.9,3.1,1.2c0.5,0.1,0.9,0.1,1.4,0.2c0.1,0,0.2,0,0.3,0.1
		c0.6,0.2,0.7,0.3,0.6,0.9c-0.2,1.2-0.6,2.3-0.8,3.5c-0.1,0.3-0.1,0.6-0.1,0.9c0,2.2,0,4.4,0,6.5c0,0.4,0.1,0.9,0.2,1.3
		c0.1,0.4,0.4,0.7,0.7,1c0.3,0.2,0.6,0.4,1,0.6c0.2,0.1,0.3,0.2,0.5,0.3c0.4,0.3,0.4,0.7,0.2,1.2c-0.5,1.1-1.2,2.2-1.9,3.3
		c-0.2,0.4-0.5,0.7-0.7,1c-0.2,0.2-0.4,0.3-0.6,0.2c-0.4-0.2-0.8-0.4-1.1-0.6c-0.9-0.6-1.9-1.3-2.7-2.1c-0.5-0.4-0.8-0.9-0.9-1.5
		c-0.1-0.4-0.2-0.8-0.3-1.1c0-0.1,0-0.2-0.1-0.2c-0.1,0-0.2,0-0.3,0.1c-1.4,1.6-2.8,3.2-4.1,4.9c-0.3,0.4-0.7,0.6-1.2,0.3
		c-0.3-0.1-0.6-0.3-0.9-0.5c-1.1-0.9-2.1-1.8-3.1-2.8c-0.4-0.3-0.6-0.8-0.6-1.3c0,0,0-0.1,0-0.1c0-0.5,0-1,0-1.6c0.1,0,0-0.1,0-0.1
		c0.1-1.7,0.1-3.3,0.2-5c0-0.3,0.1-0.6,0.4-0.7c0.4-0.2,0.8-0.4,1.3-0.5c0.6-0.2,1.2-0.3,1.8-0.5c0.6-0.2,0.6-0.3,0.1-0.7
		c-0.9-0.7-1.9-1.5-2.6-2.5c-0.4-0.6-0.9-1.1-1.3-1.8C0,12.6,0,12.6,0,12.5z M5.4,21.5c0,0.4,0,0.9,0.1,1.4c0,0.3,0.1,0.6,0.1,0.8
		C5.8,24.3,6,25,6.4,25.5c0.6,0.7,1.3,0.7,2,0.2c0.4-0.3,0.7-0.7,1-1c0.5-0.7,1-1.3,1.2-2.1c0.2-0.6,0.1-0.9-0.4-1.3
		c-0.3-0.2-0.6-0.4-0.8-0.5c-0.9-0.6-1.8-1.2-2.8-1.7c-0.6-0.3-0.8-0.2-1,0.5C5.4,20,5.4,20.7,5.4,21.5z M10.8,17c0-0.4,0-0.7,0-1
		c0.1-0.7-0.2-1.2-0.8-1.5c-0.1-0.1-0.2-0.1-0.3-0.2c-1-0.6-2-1.2-3-1.8c-0.4-0.2-0.8-0.3-1.2-0.3c-0.4,0-0.6,0.2-0.7,0.5
		c-0.1,0.6-0.1,1.3,0.2,1.9c0.3,0.7,0.7,1.2,1.1,1.7c0.8,0.9,1.6,1.9,2.7,2.5c0.4,0.3,0.9,0.4,1.4,0.5c0.2,0,0.3,0,0.4-0.3
		C10.8,18.4,10.8,17.6,10.8,17z"/>
		<path d="M127.2,16.7c0-1.6,0-3.2-0.1-4.7c-0.1-1-0.2-2-0.7-2.8c-0.1-0.2-0.2-0.5-0.3-0.8c-0.1-0.4,0.1-0.6,0.5-0.6
		c0.9,0,1.7,0.3,2.5,0.4c0.9,0.1,1.9,0.1,2.8,0c0.3,0,0.7-0.1,1-0.2c0.2-0.1,0.5-0.2,0.7-0.2c0.2,0,0.3,0.1,0.3,0.3
		c0,0.7-0.2,1.5-0.4,2.1c-0.4,1.2-0.5,2.4-0.6,3.6c-0.2,2.7-0.2,5.4-0.2,8.2c0,0.8,0.2,1.5,0.8,2c0.1,0.1,0.2,0.2,0.3,0.2
		c0.3,0.1,0.6,0.2,0.8,0.4c0.4,0.3,0.5,0.6,0.3,1.1c-0.3,0.7-0.8,1.3-1.3,1.9c-0.3,0.4-0.5,0.7-0.7,1.2c-0.1,0.3-0.3,0.7-0.5,0.9
		c-0.1,0.2-0.3,0.3-0.5,0.2c-0.8-0.1-1.5-0.5-2.1-1c-0.2-0.1-0.4-0.3-0.6-0.4c-0.5-0.2-1-0.5-1.4-0.9c-0.4-0.3-0.7-0.8-0.8-1.3
		c-0.1-0.4-0.3-0.8-0.5-1.3c-0.1-0.2-0.1-0.2-0.3-0.1c-0.3,0.2-0.5,0.5-0.6,0.9c-0.4,1-1,1.8-1.6,2.6c-0.5,0.6-0.9,1.2-1.4,1.8
		c-0.2,0.2-0.4,0.3-0.6,0.3c-0.3,0-0.5-0.1-0.8-0.2c-0.4-0.2-0.9-0.4-1.2-0.7c-0.6-0.4-1.2-0.7-1.8-0.9c-0.9-0.3-1.8-0.6-2.7-0.9
		c-0.3-0.1-0.5-0.3-0.6-0.7c-0.1-0.4,0-0.7,0.1-1.1c0.2-0.6,0.4-1.1,0.6-1.7c0.2-0.5,0.2-0.9,0.2-1.4c0-3,0-5.9,0-8.9
		c0-0.5-0.2-0.8-0.5-1.1c-0.4-0.3-0.8-0.6-1.2-0.9c-0.2-0.2-0.3-0.4-0.2-0.7c0-0.1,0.1-0.3,0.2-0.4c0.6-0.9,1.3-1.9,1.9-2.8
		c0.1-0.2,0.3-0.4,0.5-0.6c0.4-0.4,0.7-0.4,1.2-0.1c0.6,0.4,1.2,0.8,1.8,1.2c0.7,0.5,1.5,0.9,2.2,1.2c0,0,0,0,0,0
		c0.8,0.3,0.9,0.6,0.8,1.5c-0.1,0.9-0.3,1.8-0.4,2.7c-0.2,1.4-0.3,2.8-0.4,4.2c-0.1,1.5,0,3,0,4.5c0,0.5,0.3,0.9,0.6,1.3
		c0.4,0.5,1,0.9,1.6,1.2c0.2,0.1,0.5,0.1,0.7-0.1c0.4-0.5,0.7-1.1,1-1.7c0.2-0.3,0.4-0.7,0.6-1c0.2-0.3,0.2-0.7,0.2-1
		c0.1-0.8,0.1-1.5,0.1-2.3C127.2,18.3,127.2,17.5,127.2,16.7z"/>
		<path d="M31.7,19.6c0.1-1.4-0.1-3.2-0.1-5.1c0-0.2-0.1-0.3-0.2-0.4c-0.3-0.4-0.8-0.7-1.2-0.9c-0.4-0.2-0.7-0.1-1.1-0.1
		c-0.1,0-0.1,0-0.1,0.1c-0.5,0.7-1.1,1.4-1.4,2.2c-0.2,0.6-0.2,1.3-0.2,1.9c-0.1,0.9,0,1.8,0,2.7c0,1.3,0,2.7,0,4c0,1,0,1.9,0.3,2.9
		c0.2,0.8,0.3,1.6,0.3,2.4c0,0.1,0,0.2,0,0.3c0,0.5-0.1,0.6-0.7,0.7c-0.5,0-1-0.1-1.5-0.1c-0.8-0.2-1.7,0-2.5,0
		c-0.5,0-1.1,0.1-1.6,0c-0.6,0-0.7-0.1-0.7-0.7c0-0.8,0.2-1.6,0.3-2.4c0.2-1.1,0.3-2.1,0.3-3.2c0-2.2,0-4.4,0-6.6
		c0-0.6,0-1.2-0.1-1.7c-0.1-0.5-0.3-1-0.7-1.3c-0.4-0.3-0.8-0.6-1.2-0.8c-1-0.5-1.2-1.1-0.7-2.1c0.3-0.6,0.8-1.2,1.2-1.8
		c0.1-0.1,0.2-0.3,0.2-0.4c0.1-0.4,0.2-0.8,0.4-1.2c0.4-0.6,0.8-0.8,1.4-0.4c0.1,0,0.1,0.1,0.2,0.1c0.7,0.7,1.6,1.1,2.5,1.6
		c0.9,0.5,1.7,1.1,2,2.2c0.1,0.4,0.2,0.8,0.2,1.3c0,0.1,0,0.3,0.1,0.4c0.2,0,0.2-0.2,0.2-0.3c0.3-0.8,0.7-1.5,1.2-2.2
		c0.7-1,1.5-2,2.3-2.9c0.2-0.2,0.3-0.2,0.6-0.2C32,7.5,32.5,7.7,32.9,8c1.4,1,2.9,1.5,4.5,1.9c0.6,0.2,0.9,0.6,0.8,1.2
		c-0.1,0.8-0.2,1.7-0.4,2.5c-0.2,0.8-0.4,1.5-0.4,2.3c0,0.2,0,0.4,0.1,0.7c0,0.1,0,0.1,0,0.2c-0.1,1.4-0.1,2.8-0.1,4.2
		c0,0.6,0,1.2,0.1,1.8c0.2,1,0.7,1.7,1.5,2.1c0.3,0.2,0.6,0.3,0.9,0.6c0.4,0.4,0.5,0.9,0.2,1.5c-0.7,1.3-1.6,2.5-2.6,3.6
		c-0.2,0.2-0.4,0.3-0.6,0.1c-1.3-0.9-2.7-1.7-4-2.7c-1.1-0.9-1.4-2-1.4-3.4C31.6,23.1,31.6,21.6,31.7,19.6z"/>
		<path d="M80,26.3c0-0.4,0.1-0.8,0.2-1.2c0.1-0.3,0.1-0.7,0.1-1c0-0.4,0-0.9,0.1-1.3c0-0.6,0-1.2,0-1.7c0-1.3,0.1-2.5,0-3.8
		c-0.1-0.8-0.2-1.7-0.2-2.5c0-0.7-0.3-1.3-0.4-2c-0.1-0.4,0-0.9,0.1-1.3c0.2-0.5,0.5-0.9,1.1-0.9c0.8-0.1,1.6-0.5,2.3-0.8
		c0.9-0.3,1.7-0.7,2.6-1.1c0.7-0.4,1.4-0.9,2-1.4c0.5-0.4,1-0.4,1.6-0.1c0.1,0.1,0.2,0.1,0.3,0.2c1.8,1.3,3.9,1.9,5.9,2.6
		c0.5,0.1,0.9,0.3,1.4,0.4c0.8,0.2,1.2,0.8,1,1.7c0,0.1-0.1,0.3-0.1,0.4c-0.4,0.6-0.4,1.2-0.4,1.8c-0.1,1.3-0.1,2.6-0.1,3.9
		c0,1.4,0,2.7,0,4.1c0,1.1,0.1,2.1,0.3,3.2c0.1,0.4-0.1,0.9-0.6,1c-0.6,0.2-1.2,0.5-1.8,0.8c-1.8,0.9-3.6,2-5.3,3.1
		c-0.2,0.2-0.5,0.3-0.7,0.4c-0.1,0.1-0.3,0.1-0.4,0c-1.8-0.8-3.6-1.7-5.4-2.5c-0.6-0.3-1.2-0.5-1.9-0.6c-0.3-0.1-0.5,0-0.8-0.1
		c-0.4,0-0.6-0.2-0.6-0.6C80,26.8,80,26.6,80,26.3z M91.5,19.9C91.4,19.9,91.4,19.9,91.5,19.9c-0.1-1.7-0.2-3.5-0.2-5.2
		c0-0.3-0.1-0.5-0.4-0.6c-1.4-0.8-2.9-1.5-4.4-2.3c-0.2-0.1-0.3-0.1-0.3,0.2c0,0.1,0,0.3,0,0.4c-0.1,1,0,1.9,0,2.9
		c0,2.6,0.1,5.1,0.1,7.7c0,0.3,0.1,0.4,0.3,0.6c0.4,0.3,0.8,0.4,1.2,0.6c1.1,0.5,2.1,0.9,3.2,1.4c0.3,0.1,0.6,0,0.6-0.4
		C91.5,23.4,91.5,21.6,91.5,19.9z"/>
		<path d="M65.4,12.4c0-0.6,0-1.2,0-1.8c0-0.4,0.2-0.6,0.6-0.5c0.5,0.1,0.9,0,1.4,0c0.2,0,0.2-0.1,0.2-0.3c0-1.4-0.3-2.7-0.3-4.1
		c0-0.2,0-0.5-0.1-0.7c-0.1-0.3-0.1-0.4,0.2-0.5c1.6-0.9,3.3-1.8,4.9-2.7c0.6-0.3,1.2-0.7,1.7-1.2c0.2-0.2,0.9-0.2,1.1,0
		c0.7,0.7,1.6,1,2.4,1.5c0.5,0.3,1.1,0.5,1.6,0.8c0.5,0.2,0.6,0.5,0.5,1c0,0.4-0.2,0.8-0.4,1.1c-0.4,0.6-0.7,1.2-1.1,1.8
		C78,7,77.8,7.3,77.6,7.5c-0.3,0.3-0.4,0.3-0.7,0.1c-0.6-0.3-1.1-0.7-1.7-1c-0.5-0.3-0.9-0.6-1.4-0.8c-0.1,0-0.2-0.1-0.3-0.1
		c-0.2,0-0.3,0.1-0.2,0.3c0.1,1.2,0.2,2.5,0.4,3.7c0,0.2,0.1,0.3,0.3,0.4c0.8,0.1,1.6,0.2,2.4,0.1c0.4,0,0.8-0.1,1.2-0.1
		c0.3,0,0.4,0.2,0.4,0.4c0,0.4,0,0.8,0,1.3c0,0.9,0,1.7-0.1,2.6c-0.1,1-0.2,0.9-1,0.7c-0.9-0.2-1.7,0-2.5,0c-0.2,0-0.4,0.3-0.4,0.5
		c0.1,1.4,0.1,2.8,0.1,4.1c0,1.6,0.1,3.2,0.2,4.7c0.1,1.5,0.2,3,0.3,4.6c0.2,1.3,0.2,2.7,0.2,4c0,0.4,0.1,0.9,0.3,1.3
		c0.2,0.4,0.1,0.7,0,1.1c0,0.1-0.1,0.2-0.3,0.2c-1.4,0.5-2.8,0.6-4.3,0.4c-0.6-0.1-1.2-0.2-1.9-0.3c-0.3,0-0.4-0.2-0.4-0.4
		c0-0.3,0-0.6,0-0.9c0.1-0.4,0-0.9,0-1.3c0-0.8,0-1.6,0.1-2.3c0.1-1,0-1.9-0.1-2.8c-0.1-1.4-0.1-2.8-0.2-4.2c-0.1-2-0.1-4.1-0.2-6.1
		c0-0.8-0.1-1.6-0.1-2.5c0-0.3-0.2-0.4-0.4-0.4c-0.5,0-0.9,0.1-1.4,0.1c-0.5,0-0.6-0.2-0.6-0.7C65.4,13.6,65.4,13,65.4,12.4
		C65.4,12.4,65.4,12.4,65.4,12.4z"/>
		<path d="M142.6,20.6c-1.5,0-2.9,0-4.4,0.3c-0.4,0.1-0.7,0.2-1.1,0.4c-0.3,0.2-0.7,0-0.7-0.4c-0.2-1-0.2-2-0.1-2.9
		c0.1-1.7,0.1-3.4-0.2-5c-0.1-0.6-0.2-1.2-0.2-1.9c0-0.2,0-0.4,0.2-0.5c0.8-0.5,1.6-0.9,2.4-1.4c0.9-0.5,1.9-1,2.9-1.5
		c0.2-0.1,0.4-0.2,0.6-0.4c0.5-0.5,1.1-0.5,1.8-0.4c1,0.2,2,0.6,3,0.9c0.6,0.2,1.2,0.3,1.9,0.4c0.3,0,0.5-0.1,0.7-0.3
		c0.1-0.1,0.2-0.2,0.3-0.3c0.3-0.3,0.6-0.5,1.1-0.4c0.2,0,0.3,0.1,0.3,0.3c0,0.3,0,0.5-0.1,0.8c-0.3,0.9-0.7,1.8-1.1,2.7
		c-0.4,0.7-0.8,1.4-1.2,2.1c-0.5,0.9-0.9,1.8-1.5,2.6c-0.3,0.5-0.3,0.5,0.3,0.6c0.7,0.1,1.4,0.1,2.2,0.1c0.5,0,1.1,0,1.6,0
		c0.3,0,0.5,0.3,0.5,0.7c0,0.7-0.1,1.3-0.2,2c-0.1,0.9-0.1,1.8-0.1,2.7c0,0.8,0,1.6,0.1,2.4c0.1,0.7,0.2,1.4,0.3,2.1
		c0.1,0.7,0,1-0.7,1.3c-0.5,0.2-1,0.3-1.5,0.5c-1.2,0.5-2.3,1.2-3.2,2.1c-0.5,0.6-1.1,0.7-1.8,0.5c-0.9-0.2-1.9-0.5-2.8-0.7
		c-1.2-0.2-2.4-0.3-3.6-0.2c-0.3,0-0.6,0.1-0.8,0.2c-0.4,0.2-0.7,0.1-0.9-0.1c-0.3-0.2-0.5-0.5-0.4-0.9c0.1-0.4,0.2-0.8,0.3-1.1
		c0.2-0.8,0.5-1.6,0.8-2.4c0.1-0.3,0.3-0.5,0.7-0.5c0.5,0,1-0.1,1.5-0.2c0.1,0,0.2-0.1,0.3-0.2c0.4-0.5,0.8-1,1.2-1.6
		c0.4-0.6,0.8-1.2,1.3-1.8C142.4,21.1,142.5,20.9,142.6,20.6z M141.1,11.2c0,0.2,0,0.3,0,0.4c0.1,1.4,0.4,2.7,0.3,4.1
		c0,0.4,0.1,0.4,0.4,0.5c0.1,0,0.1,0,0.2,0c0.7,0.1,1.4,0,2.1,0.1c0.4,0,0.7-0.2,0.9-0.5c0.5-0.7,0.8-1.5,1.1-2.3
		c0.1-0.2,0-0.3-0.2-0.4c-0.9-0.4-1.8-0.8-2.7-1.1C142.6,11.7,141.9,11.4,141.1,11.2z M146.6,23.2C146.5,23.2,146.5,23.2,146.6,23.2
		c0-0.7,0-1.4,0-2.2c0-0.4-0.1-0.5-0.5-0.5c-0.4,0-0.7,0.1-1.1,0c-0.3,0-0.6,0.1-0.7,0.4c-0.6,0.8-1.1,1.6-1.5,2.5
		c-0.1,0.3-0.3,0.6-0.3,1c0,0.3,0.1,0.4,0.3,0.4c0.5,0.1,0.9,0.2,1.3,0.3c0.7,0.2,1.3,0.4,2,0.6c0.3,0.1,0.5-0.1,0.5-0.3
		C146.6,24.6,146.6,23.9,146.6,23.2z"/>
		<path d="M43.2,19.2c0-1.2,0-2.3,0-3.5c0-0.4-0.1-0.5-0.5-0.5c-0.3,0-0.7,0-1,0.1c-0.5,0-0.9-0.3-0.9-0.8c0-1,0-2.1,0-3.1
		c0,0,0,0,0-0.1c0.1-0.9,0.2-0.8,0.9-0.8c0.3,0,0.5,0,0.8,0.1c0.3,0.1,0.5,0,0.6-0.3c0.1-0.3,0.1-0.5,0.1-0.8C43,9,43,8.5,42.9,8
		c-0.1-0.7-0.3-1.4-0.4-2.1c-0.1-0.5,0.1-0.7,0.5-0.8c0.2,0,0.4-0.1,0.7-0.1c0.3,0,0.7,0,1,0c1.2,0,2.5,0,3.7-0.3
		c0.2-0.1,0.4,0,0.6,0c0.4,0,0.6,0.2,0.7,0.6C49.7,6,49.6,6.5,49.5,7c-0.1,0.6-0.3,1.2-0.4,1.9c0,0.5,0,1,0.2,1.5
		c0,0.2,0.1,0.2,0.3,0.2c0.5,0,1,0,1.5,0c0.1,0,0.2,0,0.3-0.1c0.2-0.1,0.4-0.2,0.6-0.1c0.2,0.1,0.4,0.2,0.4,0.5c0,1.2,0,2.5,0,3.7
		c0,0.5-0.2,0.7-0.7,0.7c-0.4,0-0.7-0.1-1-0.1c-0.4,0-0.7-0.1-1.1-0.1c-0.4,0-0.7,0.2-0.6,0.7c0.1,0.9,0.2,1.9,0.1,2.8
		c0,1.8-0.1,3.6-0.1,5.4c0,0.3,0.1,0.4,0.3,0.5c0.5,0.3,1,0.5,1.6,0.8c0.4,0.2,0.8,0.4,1.1,0.6c0.2,0.1,0.2,0.3,0.2,0.5
		c-0.2,0.6-0.5,1.2-0.8,1.8c-0.4,0.8-0.8,1.6-1.3,2.3c-0.3,0.4-0.4,0.4-0.9,0.3c-0.3-0.1-0.5-0.2-0.7-0.4c-1.5-1.1-3.2-1.9-4.9-2.6
		c-0.4-0.2-0.9-0.4-1.2-0.7c-0.4-0.3-0.4-0.4-0.2-0.8c0.2-0.7,0.5-1.4,0.8-2.1c0.3-0.6,0.4-1.3,0.4-1.9
		C43.2,21.3,43.2,20.3,43.2,19.2z"/>
		<path d="M106.3,13.7c-0.1,0.8,0,1.6,0.1,2.5c0,0.9,0,1.8,0,2.7c0,1.2,0,2.3-0.1,3.5c0,0.6,0.3,1,1,1.1c0.8,0.1,1.6,0.3,2.4,0.6
		c0.5,0.2,0.9,0.2,1.4,0.2c0.2,0,0.3,0,0.5,0c0.4,0,0.5,0.1,0.5,0.5c0,0.4,0,0.8-0.3,1.1c-0.1,0.2-0.2,0.4-0.2,0.6
		c0,0.4-0.1,0.8-0.3,1.2c-0.3,0.8-0.6,1.7-1.1,2.5c-0.1,0.2-0.2,0.4-0.4,0.5c-0.2,0.2-0.4,0.3-0.7,0.1c-0.1,0-0.1-0.1-0.2-0.1
		c-1-0.7-2.1-1-3.2-1.4c-1.5-0.6-2.9-1.1-4.5-1.4c-0.1,0-0.3,0-0.4-0.1c-0.6-0.1-0.8-0.4-0.9-0.9c-0.3-1.1-0.1-2.2,0.1-3.3
		c0.1-0.7,0.2-1.4,0.1-2.1c0-0.4,0-0.9,0.1-1.3c0.1-0.4,0-0.8,0-1.2c0-1.1,0.1-2.1,0-3.2c0-0.7-0.3-1.3-0.4-2
		c-0.2-0.8-0.3-1.5-0.3-2.3c0-0.1,0-0.2,0.1-0.3c0.3-0.4,0.6-0.7,1.1-0.9c2.1-0.7,4-1.7,5.7-3.1c0.2-0.2,0.5-0.4,0.8-0.5
		c0.4-0.2,0.7-0.1,1,0.1c0.6,0.5,1.1,1,1.6,1.5c0.2,0.2,0.3,0.3,0.5,0.4c0.7,0.4,1.5,0.9,2.1,1.4c0.7,0.5,0.7,0.7,0.3,1.5
		c-0.5,1-1.2,2-1.9,3c-0.5,0.6-0.6,0.6-1.2,0.2c-1-0.6-1.9-1.4-2.9-2.1c-0.1-0.1-0.1-0.2-0.3-0.1c-0.1,0.1-0.2,0.2-0.2,0.3
		c0,0,0,0.1,0,0.1C106.3,13.5,106.3,13.6,106.3,13.7z"/>
		<path d="M63.4,30.2c-0.4,0-0.7,0-1,0c-0.7,0.1-1.4,0-2.1,0c-0.9-0.1-1.8-0.1-2.7,0.2c-0.1,0-0.2,0-0.3,0c-0.5,0-0.8-0.2-0.8-0.7
		c0-0.4,0.1-0.7,0.2-1.1c0.3-1.1,0.3-2.2,0.4-3.3c0.1-2.5,0.2-4.9,0.2-7.4c0-0.7,0-1.4-0.1-2c-0.1-0.4-0.3-0.7-0.6-0.9
		c-0.3-0.2-0.7-0.3-1-0.4c-0.4-0.1-0.8-0.3-1.2-0.6c-0.5-0.4-0.5-0.7-0.2-1.2c0.2-0.2,0.3-0.5,0.5-0.7c0.5-0.6,1-1.3,1.4-2
		c0.2-0.4,0.5-0.9,0.9-1.2c0.2-0.2,0.4-0.2,0.6-0.2c0.2,0.1,0.4,0.2,0.6,0.3c0.3,0.2,0.7,0.5,1,0.8c0.3,0.3,0.6,0.5,1,0.6
		c0.7,0.3,1.5,0.5,2.2,0.9c0.3,0.1,0.5,0.3,0.7,0.5c0.4,0.4,0.6,0.8,0.6,1.4c0,0.3-0.1,0.7-0.2,1c-0.2,0.4-0.2,0.8-0.2,1.3
		c-0.2,1.2,0,2.3,0,3.5c0.1,2,0.2,4,0.3,6c0,0.7,0.1,1.4,0.1,2.1c0,0.6,0.3,1.1,0.4,1.7c0.1,0.4,0.1,0.8,0.1,1.2
		c0,0.3-0.1,0.4-0.5,0.4c-0.1,0-0.2,0-0.3,0C63.5,30.2,63.4,30.2,63.4,30.2z"/>
		<path d="M65.2,2.3c0,0.3-0.1,0.6-0.2,0.8c-0.2,0.5-0.5,1.1-0.8,1.6c-0.5,1-0.9,2-1.1,3.1c0,0.1,0,0.1,0,0.2
		c-0.1,0.5-0.4,0.6-0.9,0.5c-0.3-0.1-0.6-0.2-0.8-0.4c-0.4-0.2-0.8-0.4-1.3-0.5c-0.8-0.2-1.6-0.5-2.3-1c-0.3-0.2-0.4-0.3-0.2-0.6
		c0.6-1,0.8-2.2,1.2-3.3c0.3-0.9,0.6-1.8,1.1-2.6c0.2-0.4,0.2-0.4,0.6-0.2c0.9,0.3,1.7,0.6,2.6,0.9c0.6,0.2,1.2,0.6,1.8,1
		C65,1.9,65.2,2.1,65.2,2.3z"/>
	</g>
</svg>
