<?xml version="1.0" encoding="utf-8"?>
<!-- Generator: Adobe Illustrator 27.9.0, SVG Export Plug-In . SVG Version: 6.00 Build 0)  -->
<svg xmlns="http://www.w3.org/2000/svg" x="0px" y="0px" viewBox="0 0 152 36" enable-background="new 0 0 152 36">
	<g>
		<path fill="#FFFFFF" d="M60.2-0.1c0.6,0.3,1.2,0.4,1.8,0.6c0.8,0.3,1.6,0.5,2.3,0.9c0.2,0.1,0.4,0.3,0.6,0.5
		c0.2,0.2,0.3,0.5,0.2,0.8c-0.2,0.7-0.6,1.3-0.9,2c-0.5,1-0.9,2-1.1,3.1c0,0.1,0,0.1,0,0.2c-0.1,0.5-0.3,0.6-0.8,0.5
		c-0.3-0.1-0.5-0.2-0.7-0.3c-0.5-0.3-1.1-0.4-1.7-0.6c-0.8-0.2-1.4-0.5-2.1-0.9c-0.2-0.1-0.3-0.3-0.1-0.5c0.6-1,0.8-2.2,1.2-3.3
		c0.2-0.7,0.5-1.5,0.9-2.2c0.1-0.3,0.3-0.5,0.4-0.8C60.2-0.1,60.2-0.1,60.2-0.1z"/>
		<path fill="#FFFFFF" d="M127.2,16.7c0-1.6,0-3.1-0.1-4.7c-0.1-1-0.2-2-0.7-2.9c-0.1-0.2-0.2-0.5-0.2-0.8c-0.1-0.4,0.1-0.6,0.5-0.6
		c0.9,0,1.7,0.3,2.5,0.4c1,0.1,1.9,0.1,2.8,0c0.3,0,0.7-0.1,1-0.2c0.2-0.1,0.5-0.2,0.7-0.2c0.2,0,0.3,0.1,0.3,0.3
		c0,0.7-0.2,1.4-0.4,2.1c-0.4,1.2-0.5,2.4-0.6,3.6c-0.2,2.7-0.2,5.4-0.2,8.1c0,0.8,0.2,1.5,0.8,2.1c0.1,0.1,0.2,0.2,0.3,0.2
		c0.3,0.1,0.6,0.3,0.9,0.5c0.4,0.3,0.5,0.6,0.2,1c-0.3,0.7-0.8,1.3-1.3,1.9c-0.3,0.4-0.6,0.8-0.8,1.3c-0.1,0.3-0.3,0.6-0.5,0.9
		c-0.1,0.2-0.3,0.2-0.5,0.2c-0.6,0-1.2-0.3-1.6-0.7c-0.5-0.4-1-0.7-1.5-1c-0.9-0.4-1.5-1.1-1.8-2.1c-0.1-0.4-0.3-0.7-0.4-1.1
		c-0.1-0.1-0.1-0.2-0.3-0.1c-0.3,0.2-0.5,0.5-0.6,0.9c-0.4,1-1,1.8-1.6,2.6c-0.5,0.6-0.9,1.2-1.3,1.8c-0.2,0.2-0.3,0.3-0.6,0.3
		c-0.3,0-0.5-0.1-0.8-0.2c-0.4-0.2-0.9-0.4-1.2-0.7c-0.6-0.4-1.2-0.7-1.8-0.9c-0.9-0.3-1.8-0.6-2.7-0.9c-0.3-0.1-0.5-0.3-0.6-0.7
		c-0.1-0.4,0-0.7,0.1-1.1c0.2-0.7,0.5-1.3,0.7-2c0.1-0.3,0.1-0.6,0.1-1c0-3,0-6,0-9c0-0.5-0.2-0.8-0.5-1.1c-0.4-0.3-0.8-0.6-1.2-0.9
		c-0.2-0.2-0.3-0.4-0.2-0.7c0-0.1,0.1-0.3,0.2-0.4c0.6-0.9,1.3-1.9,1.9-2.8c0.2-0.2,0.3-0.5,0.5-0.7c0.3-0.3,0.7-0.4,1.1-0.1
		c0.6,0.4,1.2,0.8,1.8,1.2c0.7,0.5,1.5,0.9,2.3,1.2c0.1,0,0.2,0.1,0.2,0.1c0.6,0.3,0.7,0.4,0.6,1.1c-0.1,1-0.3,2-0.4,3
		c-0.2,1.4-0.3,2.8-0.4,4.2c-0.1,1.5,0,3,0,4.5c0,0.5,0.3,0.9,0.6,1.3c0.4,0.5,1,0.9,1.5,1.2c0.2,0.1,0.5,0.1,0.7-0.1
		c0.4-0.5,0.7-1.1,1.1-1.7c0.2-0.3,0.4-0.7,0.6-1c0.2-0.3,0.2-0.7,0.2-1c0.1-0.8,0.1-1.5,0.1-2.3C127.2,18.4,127.2,17.5,127.2,16.7z
		"/>
		<path fill="#FFFFFF" d="M31.7,19.6c0.1-1.4-0.1-3.2-0.1-5c0-0.2-0.1-0.3-0.2-0.4c-0.3-0.4-0.8-0.7-1.2-0.9
		c-0.4-0.2-0.7-0.1-1.1-0.1c-0.1,0-0.1,0-0.1,0.1c-0.5,0.7-1.1,1.4-1.4,2.2c-0.2,0.6-0.2,1.3-0.2,1.9c-0.1,0.9,0,1.8,0,2.6
		c0,1.3,0,2.7,0,4c0,1,0,1.9,0.3,2.8c0.2,0.8,0.3,1.6,0.3,2.4c0,0.1,0,0.2,0,0.3c0,0.5-0.1,0.6-0.6,0.6c-0.5,0-1-0.1-1.5-0.1
		c-0.8-0.2-1.7,0-2.5,0c-0.6,0-1.1,0.1-1.7,0c-0.6,0-0.7-0.1-0.6-0.7c0-0.8,0.2-1.6,0.3-2.4c0.2-1.1,0.3-2.1,0.3-3.2
		c0-2.2,0-4.4,0-6.6c0-0.6,0-1.1-0.1-1.7c-0.1-0.6-0.3-1-0.7-1.4c-0.4-0.3-0.8-0.6-1.2-0.8c-1-0.6-1.2-1.1-0.7-2.1
		c0.3-0.6,0.7-1.2,1.2-1.7c0.1-0.1,0.2-0.2,0.2-0.4c0.1-0.3,0.2-0.7,0.4-1c0.1-0.2,0.2-0.4,0.4-0.6c0.3-0.2,0.6-0.3,0.9-0.1
		c0.2,0.1,0.3,0.2,0.4,0.3c0.7,0.7,1.6,1.1,2.5,1.6c0.9,0.5,1.7,1.1,2,2.2c0.1,0.4,0.2,0.8,0.2,1.3c0,0.1,0,0.3,0.1,0.4
		c0.2,0,0.2-0.2,0.2-0.3c0.3-0.8,0.7-1.5,1.2-2.2c0.7-1,1.5-1.9,2.3-2.9c0.2-0.2,0.4-0.3,0.6-0.2c0.5,0.2,0.9,0.3,1.3,0.6
		c1.4,1,2.9,1.5,4.5,1.9c0.6,0.2,0.9,0.6,0.9,1.2c-0.1,0.8-0.2,1.5-0.4,2.3c-0.2,0.8-0.4,1.7-0.5,2.6c0,0.2,0,0.4,0.1,0.7
		c0,0.1,0,0.1,0,0.2c-0.1,1.4-0.1,2.8-0.1,4.2c0,0.6,0,1.2,0.1,1.8c0.2,1,0.7,1.7,1.5,2.1c0.3,0.2,0.6,0.3,0.9,0.6
		c0.4,0.4,0.5,1,0.2,1.5c-0.7,1.3-1.6,2.5-2.6,3.6c-0.2,0.2-0.4,0.3-0.6,0.1c-1.4-0.9-2.7-1.7-4-2.7c-1-0.8-1.4-2-1.4-3.3
		C31.6,23.2,31.6,21.6,31.7,19.6z"/>
		<path fill="#FFFFFF" d="M80,26.3c0-0.3,0-0.5,0.1-0.8c0.1-0.5,0.3-1,0.2-1.5c-0.1-0.4,0-0.9,0.1-1.3c0-0.5,0-1.1,0-1.6
		c0-1.3,0.1-2.5,0-3.8c0-0.8-0.2-1.7-0.2-2.5c0-0.7-0.3-1.3-0.4-2c-0.1-0.4,0-0.9,0.1-1.3c0.2-0.5,0.5-0.9,1.1-0.9
		c0.8-0.1,1.5-0.4,2.3-0.7c0.9-0.3,1.7-0.7,2.6-1.1c0.7-0.4,1.4-0.9,2-1.4c0.5-0.4,1-0.4,1.5-0.1c0.1,0.1,0.2,0.1,0.3,0.2
		c1.8,1.2,3.9,1.9,5.9,2.5c0.5,0.1,0.9,0.2,1.4,0.4c0.8,0.2,1.2,0.8,1,1.7c0,0.1-0.1,0.3-0.1,0.4c-0.4,0.5-0.4,1.2-0.4,1.8
		c-0.1,1.2-0.1,2.3-0.1,3.5c0,1.8,0,3.6,0,5.3c0,0.8,0.2,1.6,0.4,2.4c0.1,0.5-0.1,0.9-0.6,1c-0.6,0.2-1.2,0.5-1.8,0.8
		c-1.8,0.9-3.5,2-5.3,3.1c-0.3,0.2-0.6,0.5-1,0.5c-0.3,0-0.7-0.3-1-0.4c-1.7-0.8-3.4-1.6-5.2-2.3c-0.7-0.3-1.4-0.5-2.2-0.5
		c-0.4,0-0.6-0.2-0.6-0.6C80,26.8,80,26.5,80,26.3z M91.5,19.9C91.4,19.9,91.4,19.9,91.5,19.9c-0.1-1.8-0.2-3.5-0.2-5.3
		c0-0.2-0.1-0.4-0.3-0.5c-0.7-0.4-1.4-0.8-2.1-1.1c-0.8-0.4-1.5-0.8-2.3-1.2c-0.3-0.1-0.3-0.1-0.4,0.2c-0.1,0.4-0.1,0.8-0.1,1.2
		c0,2,0,4,0.1,6.1c0,1.2,0.1,2.3,0,3.5c0,0.4,0.2,0.7,0.5,0.8c0.2,0.1,0.4,0.2,0.6,0.3c0.3,0.1,0.5,0.2,0.8,0.3
		c1,0.4,1.9,0.9,2.8,1.3c0.3,0.1,0.6-0.1,0.6-0.4C91.5,23.4,91.5,21.6,91.5,19.9z"/>
		<path fill="#FFFFFF" d="M74.1,20.2c0.1,1.8,0.2,3.5,0.3,5.3c0.1,1.1,0.2,2.1,0.2,3.2c0.1,0.9,0.2,1.8,0.2,2.7c0,0.5,0,1,0,1.4
		c0,0.6,0.1,1.1,0.4,1.6c0.2,0.4,0.1,0.7,0,1.1c0,0.1-0.1,0.1-0.2,0.2c-1.2,0.5-2.5,0.6-3.8,0.5c-0.7-0.1-1.3-0.2-2-0.3c0,0,0,0,0,0
		c-0.8,0-0.9-0.1-0.8-1c0-0.5,0-0.9,0-1.4c0-0.9,0-1.7,0.1-2.6c0-0.8,0-1.5-0.1-2.3c-0.2-1.6-0.2-3.2-0.3-4.8c-0.1-2-0.1-4-0.2-6.1
		c0-0.8-0.1-1.6-0.1-2.4c0-0.3-0.2-0.4-0.4-0.4C67,14.9,66.5,15,66,14.9c-0.4,0-0.6-0.2-0.6-0.7c0-1.2,0-2.4-0.1-3.6
		c0-0.4,0.2-0.6,0.6-0.5c0.4,0.1,0.9,0,1.3,0c0.2,0,0.3,0,0.3-0.3c-0.1-1.4-0.3-2.7-0.3-4.1c0-0.2,0-0.5-0.1-0.7
		c-0.1-0.2,0-0.4,0.2-0.5c1.7-0.9,3.3-1.8,5-2.8c0.6-0.3,1.1-0.7,1.6-1.2c0.2-0.2,0.9-0.2,1.1,0c0.8,0.7,1.7,1.1,2.6,1.5
		c0.5,0.2,1,0.5,1.5,0.7c0.5,0.2,0.6,0.5,0.5,1c0,0.4-0.2,0.8-0.4,1.1c-0.4,0.6-0.7,1.2-1.1,1.8c-0.2,0.3-0.3,0.5-0.6,0.8
		c-0.3,0.3-0.4,0.3-0.7,0.2c-0.6-0.3-1.1-0.7-1.7-1c-0.4-0.3-0.9-0.6-1.4-0.8c-0.1,0-0.2-0.1-0.2-0.1c-0.2,0-0.3,0-0.3,0.3
		c0.1,1.2,0.2,2.4,0.4,3.6c0,0.2,0.1,0.4,0.3,0.4c0.8,0.1,1.6,0.2,2.4,0.1c0.4,0,0.8-0.1,1.2-0.1c0.3,0,0.4,0.2,0.4,0.4
		c0,0.4,0,0.8,0,1.3c0,0.9,0,1.7-0.1,2.6c0,0.2-0.1,0.4-0.1,0.6c0,0.2-0.2,0.3-0.4,0.2c-0.5,0-0.9-0.2-1.4-0.2c-0.5,0-1,0.1-1.5,0.1
		c-0.3,0-0.5,0.2-0.5,0.5c0.1,1.2,0.1,2.4,0.1,3.5C74.1,19.5,74.1,19.8,74.1,20.2z"/>
		<path fill="#FFFFFF" d="M0.1,22.4c0-0.9,0.1-2,0.1-3.1c0-0.3,0.1-0.4,0.3-0.5c0.5-0.3,1-0.5,1.5-0.6c0.6-0.2,1.1-0.3,1.7-0.5
		c0.5-0.2,0.5-0.3,0.1-0.6c-0.6-0.5-1.2-0.9-1.8-1.5c-0.7-0.8-1.4-1.6-1.9-2.5c-0.3-0.5-0.2-0.7,0.3-1c0.4-0.2,0.8-0.3,1.2-0.4
		c0.5-0.1,0.9-0.3,1.3-0.6c1.1-0.7,2.2-1.4,3-2.5c0.4-0.5,0.8-1,1.3-1.4c0.5-0.4,0.6-0.4,1.1,0c1,0.7,2.1,1.2,3.2,1.7
		c1,0.5,2,0.9,3.1,1.2c0.5,0.2,1.1,0.1,1.6,0.3c0.9,0.3,0.7,0.3,0.6,0.9c-0.2,1.1-0.5,2.1-0.7,3.2c-0.1,0.5-0.1,0.9-0.1,1.4
		c0,2.1,0,4.2,0,6.3c0,0.4,0.1,0.9,0.2,1.3c0.1,0.4,0.4,0.7,0.7,0.9c0.3,0.2,0.6,0.4,0.9,0.6c0.2,0.1,0.3,0.2,0.5,0.3
		c0.4,0.3,0.5,0.7,0.3,1.2c-0.5,1.1-1.2,2.2-1.9,3.2c-0.2,0.3-0.4,0.7-0.7,1c-0.3,0.3-0.4,0.4-0.8,0.2c-0.4-0.1-0.7-0.4-1-0.6
		c-1-0.7-2.1-1.5-3-2.3c-0.3-0.3-0.5-0.6-0.6-1c-0.1-0.5-0.2-0.9-0.3-1.4c0-0.1,0-0.2-0.1-0.2c-0.1,0-0.2,0-0.3,0.1
		c-1.4,1.6-2.8,3.1-4.1,4.8c-0.3,0.4-0.7,0.5-1.2,0.3c-0.3-0.1-0.6-0.3-0.9-0.5c-1.1-0.9-2.2-1.8-3.2-2.8C0.1,27,0,26.4,0,25.8
		C0,24.7,0.1,23.6,0.1,22.4z M10.6,21.9c0-0.1-0.1-0.3-0.2-0.5c-0.2-0.2-0.4-0.4-0.7-0.6c-0.8-0.5-1.7-1-2.5-1.6
		c-0.3-0.2-0.7-0.4-1-0.5c-0.2-0.1-0.4,0-0.5,0.2c-0.1,0.2-0.2,0.4-0.2,0.7c-0.1,1.1-0.1,2.2,0,3.2c0.1,0.9,0.3,1.7,0.8,2.4
		c0.6,0.8,1.5,0.9,2.2,0.2c0.8-0.8,1.5-1.7,1.9-2.7C10.5,22.6,10.6,22.3,10.6,21.9z M10.8,17c0-0.4,0-0.7,0-1
		c0.1-0.7-0.2-1.1-0.7-1.5c-0.1-0.1-0.2-0.1-0.3-0.2c-1-0.6-2-1.2-3-1.7c-0.4-0.2-0.8-0.3-1.2-0.3c-0.4,0-0.6,0.2-0.6,0.5
		c-0.1,0.6-0.1,1.3,0.2,1.9c0.3,0.7,0.7,1.2,1.1,1.8C7.1,17.4,7.9,18.3,9,19c0.4,0.3,0.9,0.4,1.4,0.4c0.2,0,0.2-0.1,0.3-0.2
		C10.8,18.4,10.8,17.7,10.8,17z"/>
		<path fill="#FFFFFF" d="M142.6,20.6c-1.5,0-2.9,0-4.4,0.3c-0.4,0.1-0.7,0.2-1.1,0.4c-0.3,0.2-0.7,0-0.7-0.3c-0.2-1-0.2-1.9-0.1-2.9
		c0.1-1.7,0.1-3.4-0.2-5c-0.1-0.6-0.2-1.3-0.2-2c0-0.2,0-0.2,0.2-0.3c0.7-0.5,1.5-0.9,2.3-1.3c1-0.6,2-1.1,3.1-1.6
		c0.3-0.1,0.5-0.3,0.7-0.5C142.6,7,143,7,143.5,7c0.7,0.1,1.3,0.3,2,0.5c0.8,0.3,1.7,0.6,2.6,0.7c0.3,0,0.5,0.1,0.8,0.1
		c0.2,0,0.4-0.1,0.5-0.3c0.1-0.1,0.2-0.3,0.3-0.4c0.3-0.3,0.6-0.4,1-0.4c0.2,0,0.3,0.1,0.3,0.3c0,0.4,0,0.7-0.2,1.1
		c-0.3,0.8-0.6,1.6-1,2.4c-0.4,0.7-0.8,1.4-1.2,2.1c-0.5,0.9-1,1.8-1.5,2.7c-0.2,0.4-0.2,0.4,0.2,0.5c0.8,0.1,1.5,0.1,2.3,0.1
		c0.5,0,1.1,0,1.6,0c0.3,0,0.5,0.3,0.5,0.7c0,0.6,0,1.2-0.1,1.8c-0.1,0.9-0.1,1.9-0.1,2.8c0,0.8,0,1.6,0.1,2.4
		c0.1,0.7,0.2,1.4,0.3,2.1c0.1,0.7,0,1-0.7,1.3c-0.5,0.2-1,0.3-1.5,0.5c-1.2,0.5-2.3,1.1-3.2,2.1c-0.5,0.6-1.1,0.7-1.8,0.5
		c-0.9-0.2-1.8-0.5-2.8-0.7c-1.2-0.2-2.4-0.3-3.6-0.2c-0.3,0-0.6,0.1-0.9,0.2c-0.4,0.2-0.6,0.1-0.9-0.1c-0.3-0.2-0.5-0.5-0.4-0.9
		c0.1-0.4,0.2-0.8,0.3-1.1c0.2-0.8,0.5-1.6,0.8-2.4c0.1-0.3,0.3-0.5,0.7-0.6c0.5,0,1-0.1,1.5-0.2c0.2,0,0.3-0.1,0.4-0.2
		c0.4-0.5,0.8-1,1.2-1.5c0.4-0.6,0.8-1.2,1.3-1.7C142.4,21.1,142.5,20.9,142.6,20.6z M141.1,11.2c0,0.2,0,0.3,0,0.4
		c0.1,1.3,0.4,2.6,0.3,4c0,0.5,0.1,0.5,0.5,0.6c0,0,0.1,0,0.1,0c0.7,0.1,1.4,0,2.1,0.1c0.4,0,0.7-0.2,0.9-0.5c0-0.1,0.1-0.1,0.1-0.2
		c0.4-0.7,0.7-1.4,1.1-2.2c0.1-0.2,0-0.3-0.2-0.4c-1.1-0.5-2.1-0.9-3.3-1.3C142.2,11.6,141.7,11.4,141.1,11.2z M146.6,23.1
		C146.5,23.1,146.5,23.1,146.6,23.1c0-0.7,0-1.4,0-2.1c0-0.4-0.1-0.5-0.5-0.5c-0.4,0-0.7,0.1-1.1,0c-0.3,0-0.5,0.1-0.7,0.3
		c-0.6,0.8-1.1,1.6-1.5,2.5c-0.1,0.3-0.3,0.6-0.3,0.9c0,0.4,0,0.4,0.4,0.5c0.1,0,0.2,0,0.4,0.1c1,0.2,1.9,0.5,2.8,0.8
		c0.3,0.1,0.5-0.1,0.5-0.3C146.6,24.6,146.6,23.9,146.6,23.1z"/>
		<path fill="#FFFFFF" d="M52.4,12.9c0,0.6,0,1.3,0,1.9c0,0.4-0.1,0.6-0.5,0.6c-0.4,0.1-0.9,0-1.3-0.1c-0.4,0-0.7,0-1.1,0
		c-0.3,0-0.5,0.3-0.5,0.7c0.1,0.7,0.1,1.4,0.1,2.2c0,1.6-0.1,3.2-0.1,4.9c0,0.4,0,0.9,0,1.3c0,0.2,0.1,0.2,0.2,0.3
		c0.4,0.3,0.8,0.5,1.2,0.6c0.4,0.2,0.9,0.4,1.3,0.7c0.5,0.3,0.6,0.4,0.3,1c-0.3,0.8-0.7,1.5-1.1,2.3c-0.3,0.5-0.6,1.1-1,1.6
		c-0.2,0.3-0.3,0.3-0.7,0.2c-0.3-0.1-0.6-0.2-0.9-0.4c-1.5-1.1-3.2-1.9-4.8-2.6c-0.4-0.2-0.9-0.4-1.3-0.7c-0.4-0.3-0.4-0.4-0.3-0.8
		c0.2-0.7,0.4-1.4,0.8-2.1c0.3-0.6,0.4-1.2,0.4-1.9c0-2.2,0-4.4,0-6.7c0-0.3-0.1-0.5-0.5-0.4c-0.4,0-0.7,0-1.1,0.1
		c-0.5,0-0.9-0.3-0.9-0.9c0-1,0-2,0.1-3c0.1-1,0.2-1,1-1c0.2,0,0.5,0,0.7,0.1c0.3,0.1,0.5,0,0.6-0.3c0.1-0.3,0.1-0.5,0.1-0.8
		C43,9,43,8.5,42.9,8.1c-0.1-0.7-0.3-1.4-0.4-2.1c-0.1-0.5,0.1-0.7,0.5-0.8c0.2,0,0.4-0.1,0.7-0.1c0.3,0,0.7,0,1,0
		c1.2,0,2.5,0,3.7-0.3c0.2-0.1,0.4,0,0.6,0c0.4,0,0.6,0.2,0.7,0.6c0.1,0.6-0.1,1.1-0.2,1.7c-0.1,0.6-0.3,1.2-0.4,1.9
		c-0.1,0.5,0,1,0.2,1.5c0,0.1,0.1,0.2,0.3,0.2c0.5,0,1,0,1.6,0c0.1,0,0.2,0,0.3-0.1c0.2-0.1,0.4-0.2,0.6-0.1
		c0.2,0.1,0.3,0.2,0.3,0.5C52.4,11.6,52.4,12.3,52.4,12.9z"/>
		<path fill="#FFFFFF" d="M106.3,13.8c-0.2,1,0.1,1.9,0.1,2.8c0,0.9-0.1,1.9,0,2.8c0,1,0,1.9-0.1,2.8c0,0.7,0.3,1.1,1,1.2
		c0.8,0.1,1.6,0.3,2.4,0.6c0.5,0.2,0.9,0.2,1.4,0.2c0.2,0,0.3,0,0.5,0c0.4,0,0.4,0.1,0.5,0.5c0,0.4,0,0.8-0.3,1.2
		c-0.2,0.3-0.2,0.7-0.2,1c0,0.1,0,0.2,0,0.3c-0.3,1-0.7,1.9-1.1,2.8c-0.1,0.2-0.3,0.5-0.5,0.7c-0.2,0.3-0.4,0.3-0.8,0.2
		c0,0-0.1,0-0.1-0.1c-1.2-0.8-2.5-1.2-3.9-1.7c-1.4-0.6-2.9-1-4.4-1.3c-0.3,0-0.6-0.4-0.7-0.8c-0.3-1.1-0.2-2.3,0.1-3.4
		c0.1-0.7,0.2-1.4,0.1-2.1c0-0.4,0-0.8,0.1-1.2c0.1-0.4,0-0.8,0-1.2c0-1,0.1-2.1,0-3.1c0-0.7-0.2-1.3-0.4-2
		c-0.2-0.7-0.3-1.5-0.3-2.3c0-0.1,0-0.2,0.1-0.3c0.3-0.4,0.6-0.7,1.1-0.8c2.1-0.7,4-1.7,5.7-3.1c0.2-0.2,0.5-0.4,0.8-0.5
		c0.3-0.1,0.6-0.1,0.9,0.1c0.6,0.4,1.1,1,1.5,1.5c0.2,0.2,0.4,0.4,0.6,0.5c0.7,0.4,1.4,0.9,2.1,1.4c0.7,0.5,0.7,0.7,0.3,1.4
		c-0.6,1.1-1.2,2.1-2,3c-0.4,0.5-0.5,0.5-1,0.2c-0.9-0.6-1.8-1.2-2.7-1.9c-0.1-0.1-0.2-0.2-0.4-0.3c-0.1,0-0.1-0.1-0.2-0.1
		c-0.1,0.1-0.2,0.1-0.2,0.3C106.4,13.4,106.3,13.6,106.3,13.8z"/>
		<path fill="#FFFFFF" d="M57.3,21.5c0-1.5,0.1-3.1,0.1-4.7c0-0.4,0-0.7-0.1-1c-0.1-0.4-0.3-0.6-0.6-0.8c-0.3-0.2-0.7-0.3-1.1-0.5
		c-0.4-0.1-0.8-0.3-1.2-0.6c-0.5-0.4-0.5-0.7-0.2-1.2c0.2-0.2,0.3-0.5,0.5-0.7c0.5-0.6,0.9-1.2,1.3-1.9c0.2-0.4,0.5-0.9,0.8-1.2
		c0.2-0.3,0.5-0.3,0.8-0.2c0.3,0.1,0.6,0.3,0.8,0.5c0.2,0.2,0.4,0.3,0.6,0.5c0.3,0.4,0.8,0.6,1.3,0.8c0.7,0.3,1.4,0.5,2.1,0.8
		c0.3,0.1,0.5,0.3,0.7,0.5c0.4,0.4,0.6,0.8,0.6,1.3c0,0.3-0.1,0.6-0.2,1c-0.2,0.4-0.2,0.8-0.2,1.3c-0.2,1.2,0,2.3,0,3.5
		c0.1,2,0.2,4,0.3,6c0,0.7,0.1,1.4,0.1,2.1c0,0.6,0.3,1.1,0.4,1.7c0.1,0.4,0.1,0.8,0.1,1.2c0,0.3-0.1,0.4-0.5,0.4
		c-0.6,0-1.2-0.1-1.8,0c-0.4,0-0.8,0-1.2,0c-1.1-0.1-2.2-0.2-3.2,0.1c-0.1,0-0.2,0-0.3,0c-0.4,0-0.7-0.2-0.7-0.7
		c0-0.4,0.1-0.8,0.2-1.1c0.3-1.1,0.3-2.1,0.4-3.2C57.2,24.1,57.2,22.8,57.3,21.5z"/>
	</g>
	<g>
	</g>
	<g>
	</g>
	<g>
	</g>
	<g>
	</g>
	<g>
	</g>
	<g>
	</g>
</svg>
